<?xml version="1.0"?><svg xmlns="http://www.w3.org/2000/svg" xmlns:xlink="http://www.w3.org/1999/xlink" version="1.1" viewBox="0 0 512 512" style="enable-background:new 0 0 512 512;" xml:space="preserve"><g id="_x31_0_Bandage"><linearGradient id="SVGID_1_" gradientUnits="userSpaceOnUse" x1="36.0447" y1="475.9885" x2="476.0219" y2="36.0113"><stop offset="0" style="stop-color:#696EFF"/><stop offset="1" style="stop-color:#F8ACFF"/></linearGradient><path style="fill:url(#SVGID_1_);" d="M398.283,364.999c-1.892-1.89-1.892-4.957,0-6.849l8.491-8.493   c1.892-1.892,4.957-1.892,6.849,0c1.892,1.89,1.892,4.957,0,6.849l-8.491,8.493c-0.946,0.946-2.185,1.419-3.424,1.419   C400.469,366.418,399.229,365.945,398.283,364.999z M452.43,417.14c1.239,0,2.478-0.473,3.424-1.419l8.491-8.493   c1.892-1.892,1.892-4.958,0-6.849c-1.892-1.892-4.957-1.892-6.849,0l-8.491,8.493c-1.892,1.892-1.892,4.958,0,6.849   C449.951,416.667,451.19,417.14,452.43,417.14z M408.903,448.971l-8.491,8.493c-1.892,1.892-1.892,4.958,0,6.849   c0.946,0.946,2.185,1.419,3.424,1.419c1.239,0,2.478-0.473,3.424-1.419l8.491-8.493c1.892-1.892,1.892-4.958,0-6.849   C413.86,447.079,410.795,447.079,408.903,448.971z M407.841,399.315l-8.495,8.493c-1.892,1.89-1.892,4.957,0,6.849   c0.946,0.946,2.185,1.419,3.424,1.419s2.478-0.473,3.424-1.419l8.495-8.493c1.892-1.89,1.892-4.957,0-6.849   C412.797,397.423,409.733,397.423,407.841,399.315z M408.903,63.029c0.946,0.946,2.185,1.419,3.424,1.419s2.478-0.473,3.424-1.419   c1.892-1.89,1.892-4.957,0-6.849l-8.491-8.493c-1.892-1.892-4.957-1.892-6.849,0c-1.892,1.89-1.892,4.957,0,6.849L408.903,63.029z    M457.497,111.622c0.946,0.946,2.185,1.419,3.424,1.419c1.239,0,2.478-0.473,3.424-1.419c1.892-1.89,1.892-4.957,0-6.849   l-8.491-8.493c-1.892-1.892-4.957-1.892-6.849,0c-1.892,1.89-1.892,4.957,0,6.849L457.497,111.622z M406.775,162.342   c0.946,0.946,2.185,1.419,3.424,1.419s2.478-0.473,3.424-1.419c1.892-1.89,1.892-4.957,0-6.849l-8.491-8.493   c-1.892-1.892-4.957-1.892-6.849,0c-1.892,1.89-1.892,4.957,0,6.849L406.775,162.342z M407.841,112.685   c0.946,0.946,2.185,1.419,3.424,1.419s2.478-0.473,3.424-1.419c1.892-1.892,1.892-4.958,0-6.849l-8.495-8.493   c-1.892-1.892-4.957-1.892-6.849,0c-1.892,1.892-1.892,4.958,0,6.849L407.841,112.685z M99.736,64.448   c1.239,0,2.478-0.473,3.424-1.419l8.495-8.493c1.892-1.89,1.892-4.957,0-6.849c-1.892-1.892-4.957-1.892-6.849,0l-8.495,8.493   c-1.892,1.89-1.892,4.957,0,6.849C97.257,63.975,98.497,64.448,99.736,64.448z M63.061,96.28c1.892,1.89,1.892,4.957,0,6.849   l-8.491,8.493c-0.946,0.946-2.185,1.419-3.424,1.419c-1.239,0-2.478-0.473-3.424-1.419c-1.892-1.89-1.892-4.957,0-6.849   l8.491-8.493C58.105,94.389,61.169,94.389,63.061,96.28z M147.033,113.749c-1.892-1.89-1.892-4.957,0-6.849l8.491-8.493   c1.892-1.892,4.957-1.892,6.849,0c1.892,1.89,1.892,4.957,0,6.849l-8.491,8.493c-0.946,0.946-2.185,1.419-3.424,1.419   S147.979,114.695,147.033,113.749z M113.783,147.001c1.892,1.892,1.892,4.958,0,6.849l-8.495,8.493   c-0.946,0.946-2.185,1.419-3.424,1.419c-1.239,0-2.478-0.473-3.424-1.419c-1.892-1.892-1.892-4.958,0-6.849l8.495-8.493   C108.826,145.109,111.891,145.109,113.783,147.001z M97.377,112.685c-1.892-1.89-1.892-4.957,0-6.849l8.491-8.493   c1.892-1.892,4.957-1.892,6.849,0c1.892,1.89,1.892,4.957,0,6.849l-8.491,8.493c-0.946,0.946-2.185,1.419-3.424,1.419   C99.562,114.104,98.323,113.631,97.377,112.685z M365.033,398.251c1.892,1.892,1.892,4.958,0,6.849l-8.495,8.493   c-0.946,0.946-2.185,1.419-3.424,1.419s-2.478-0.473-3.424-1.419c-1.892-1.892-1.892-4.958,0-6.849l8.495-8.493   C360.077,396.359,363.141,396.359,365.033,398.251z M36.045,475.989c36.046,36.049,94.399,36.054,130.449,0l89.539-89.539   l89.539,89.539c36.046,36.049,94.399,36.054,130.449,0c35.965-35.965,35.965-94.484,0-130.449l-89.539-89.539l89.539-89.539   c35.965-35.965,35.965-94.484,0-130.451c-36.045-36.049-94.399-36.054-130.449,0l-89.539,89.539l-89.539-89.539   c-36.045-36.049-94.399-36.054-130.449,0c-36.049,36.045-36.059,94.399,0,130.451L125.584,256l-89.539,89.539   C-0.005,381.583-0.012,439.938,36.045,475.989z M469.173,352.388c32.187,32.189,32.187,84.563,0,116.752   c-32.263,32.263-84.486,32.266-116.752,0l-89.539-89.539l116.752-116.753L469.173,352.388z M42.894,159.613   c-32.267-32.267-32.266-84.484,0-116.754c32.263-32.263,84.486-32.266,116.752,0l89.539,89.539L132.432,249.152L42.894,159.613z    M352.421,42.86c32.263-32.263,84.486-32.266,116.752,0c32.187,32.191,32.187,84.565,0,116.754L159.646,469.14   c-32.263,32.263-84.486,32.266-116.752,0c-32.267-32.267-32.266-84.486,0-116.752L352.421,42.86z M200.085,357.097   c5.218,5.217,12.073,7.825,18.928,7.825c6.855,0,13.707-2.609,18.925-7.826l119.19-119.189c10.437-10.437,10.437-27.417,0-37.852   l-45.15-45.15c-10.437-10.437-27.414-10.437-37.851,0l-119.19,119.19c-10.437,10.437-10.437,27.417,0,37.852L200.085,357.097z    M161.787,280.942l119.19-119.19c3.33-3.33,7.703-4.993,12.077-4.993s8.747,1.663,12.077,4.993l45.15,45.15   c6.659,6.659,6.659,17.495,0,24.155L231.09,350.247c-6.659,6.656-17.497,6.656-24.156,0l-45.147-45.15   C155.127,298.438,155.127,287.602,161.787,280.942z M349.69,105.256c-1.892-1.89-1.892-4.957,0-6.849   c1.892-1.892,4.957-1.892,6.849,0l8.495,8.493c1.892,1.89,1.892,4.957,0,6.849c-0.946,0.946-2.185,1.419-3.424,1.419   c-1.239,0-2.478-0.473-3.424-1.419L349.69,105.256z M98.44,356.506c-1.892-1.89-1.892-4.957,0-6.849s4.957-1.892,6.849,0   l8.495,8.493c1.892,1.89,1.892,4.957,0,6.849c-0.946,0.946-2.185,1.419-3.424,1.419c-1.239,0-2.478-0.473-3.424-1.419   L98.44,356.506z M147.033,405.1c-1.892-1.892-1.892-4.958,0-6.849c1.892-1.892,4.957-1.892,6.849,0l8.491,8.493   c1.892,1.892,1.892,4.958,0,6.849c-0.946,0.946-2.185,1.419-3.424,1.419c-1.239,0-2.478-0.473-3.424-1.419L147.033,405.1z    M47.721,407.228c-1.892-1.892-1.892-4.958,0-6.849c1.892-1.892,4.957-1.892,6.849,0l8.491,8.493c1.892,1.892,1.892,4.958,0,6.849   c-0.946,0.946-2.185,1.419-3.424,1.419s-2.478-0.473-3.424-1.419L47.721,407.228z M96.311,455.82c-1.892-1.89-1.892-4.957,0-6.849   c1.892-1.892,4.957-1.892,6.849,0l8.495,8.493c1.892,1.89,1.892,4.957,0,6.849c-0.946,0.946-2.185,1.419-3.424,1.419   c-1.239,0-2.478-0.473-3.424-1.419L96.311,455.82z M97.377,406.164c-1.892-1.892-1.892-4.958,0-6.849   c1.892-1.892,4.957-1.892,6.849,0l8.491,8.493c1.892,1.892,1.892,4.958,0,6.849c-0.946,0.946-2.185,1.419-3.424,1.419   c-1.239,0-2.478-0.473-3.424-1.419L97.377,406.164z"/></g><g id="Layer_1"/></svg>