<svg width="400" height="500" viewBox="0 0 400 500" fill="none" xmlns="http://www.w3.org/2000/svg">
  <!-- Doctor figure -->
  <g id="doctor">
    <!-- Head -->
    <circle cx="200" cy="120" r="50" fill="#F4C2A1" stroke="#E8B088" stroke-width="2"/>
    
    <!-- Hair -->
    <path d="M150 90 Q200 70 250 90 Q250 100 240 110 Q200 80 160 110 Q150 100 150 90" fill="#8B4513"/>
    
    <!-- Eyes -->
    <circle cx="185" cy="115" r="3" fill="#2C3E50"/>
    <circle cx="215" cy="115" r="3" fill="#2C3E50"/>
    
    <!-- Nose -->
    <ellipse cx="200" cy="125" rx="2" ry="4" fill="#E8B088"/>
    
    <!-- Mouth -->
    <path d="M190 135 Q200 145 210 135" stroke="#2C3E50" stroke-width="2" fill="none"/>
    
    <!-- Body/Lab Coat -->
    <rect x="150" y="170" width="100" height="200" rx="10" fill="white" stroke="#E5E7EB" stroke-width="2"/>
    
    <!-- Collar -->
    <path d="M170 170 L200 190 L230 170" fill="white" stroke="#E5E7EB" stroke-width="2"/>
    
    <!-- Tie -->
    <rect x="195" y="190" width="10" height="60" fill="#1E40AF"/>
    <polygon points="195,190 205,190 200,180" fill="#1E40AF"/>
    
    <!-- Arms -->
    <rect x="120" y="200" width="30" height="80" rx="15" fill="white" stroke="#E5E7EB" stroke-width="2"/>
    <rect x="250" y="200" width="30" height="80" rx="15" fill="white" stroke="#E5E7EB" stroke-width="2"/>
    
    <!-- Hands -->
    <circle cx="135" cy="290" r="15" fill="#F4C2A1" stroke="#E8B088" stroke-width="2"/>
    <circle cx="265" cy="290" r="15" fill="#F4C2A1" stroke="#E8B088" stroke-width="2"/>
    
    <!-- Stethoscope -->
    <path d="M180 200 Q160 220 160 250 Q160 270 180 280" stroke="#2563EB" stroke-width="4" fill="none"/>
    <path d="M220 200 Q240 220 240 250 Q240 270 220 280" stroke="#2563EB" stroke-width="4" fill="none"/>
    <circle cx="200" cy="285" r="8" fill="#2563EB"/>
    
    <!-- Clipboard in right hand -->
    <rect x="250" y="270" width="25" height="35" rx="2" fill="#F3F4F6" stroke="#9CA3AF" stroke-width="1"/>
    <line x1="255" y1="280" x2="270" y2="280" stroke="#6B7280" stroke-width="1"/>
    <line x1="255" y1="285" x2="270" y2="285" stroke="#6B7280" stroke-width="1"/>
    <line x1="255" y1="290" x2="265" y2="290" stroke="#6B7280" stroke-width="1"/>
    
    <!-- Legs -->
    <rect x="170" y="370" width="25" height="80" fill="#374151"/>
    <rect x="205" y="370" width="25" height="80" fill="#374151"/>
    
    <!-- Shoes -->
    <ellipse cx="182" cy="460" rx="20" ry="8" fill="#1F2937"/>
    <ellipse cx="217" cy="460" rx="20" ry="8" fill="#1F2937"/>
  </g>
</svg>