<svg width="120" height="120" viewBox="0 0 120 120" fill="none" xmlns="http://www.w3.org/2000/svg">
  <!-- Laptop with doctor search interface -->
  <g id="laptop-doctors">
    <!-- Laptop base -->
    <ellipse cx="60" cy="85" rx="45" ry="8" fill="#FCD34D" opacity="0.3"/>
    <rect x="20" y="75" width="80" height="10" rx="2" fill="#F59E0B"/>
    
    <!-- Laptop screen -->
    <rect x="25" y="25" width="70" height="50" rx="3" fill="#1F2937"/>
    <rect x="28" y="28" width="64" height="44" rx="2" fill="#FEF3C7"/>
    
    <!-- Search interface -->
    <rect x="32" y="32" width="56" height="6" rx="3" fill="white" stroke="#F59E0B" stroke-width="1"/>
    <circle cx="82" cy="35" r="2" fill="#F59E0B"/>
    
    <!-- Doctor profiles -->
    <rect x="32" y="42" width="25" height="25" rx="2" fill="white" stroke="#FDE68A" stroke-width="1"/>
    <circle cx="40" cy="50" r="4" fill="#F4C2A1"/>
    <rect x="36" y="54" width="8" height="6" rx="1" fill="#3B82F6"/>
    <text x="38" y="64" font-family="Arial" font-size="3" fill="#F59E0B">Dr. Smith</text>
    
    <rect x="63" y="42" width="25" height="25" rx="2" fill="white" stroke="#FDE68A" stroke-width="1"/>
    <circle cx="71" cy="50" r="4" fill="#F4C2A1"/>
    <rect x="67" y="54" width="8" height="6" rx="1" fill="#EF4444"/>
    <text x="69" y="64" font-family="Arial" font-size="3" fill="#F59E0B">Dr. Jones</text>
    
    <!-- Floating elements -->
    <circle cx="15" cy="40" r="6" fill="#FDE68A" opacity="0.6"/>
    <circle cx="105" cy="35" r="8" fill="#FDE68A" opacity="0.4"/>
    <circle cx="10" cy="70" r="5" fill="#FDE68A" opacity="0.5"/>
    <circle cx="110" cy="65" r="7" fill="#FDE68A" opacity="0.3"/>
    
    <!-- Medical icons -->
    <g transform="translate(8, 35)">
      <rect x="2" y="0" width="2" height="6" fill="#F59E0B" opacity="0.7"/>
      <rect x="0" y="2" width="6" height="2" fill="#F59E0B" opacity="0.7"/>
    </g>
    
    <g transform="translate(100, 60)">
      <circle cx="3" cy="3" r="2" fill="#F59E0B" opacity="0.5"/>
      <rect x="2" y="1" width="2" height="4" fill="white" opacity="0.8"/>
      <rect x="1" y="2" width="4" height="2" fill="white" opacity="0.8"/>
    </g>
  </g>
</svg>