<svg width="120" height="120" viewBox="0 0 120 120" fill="none" xmlns="http://www.w3.org/2000/svg">
  <!-- Phone with video call interface -->
  <g id="phone-consultation">
    <!-- Phone body -->
    <rect x="30" y="20" width="60" height="80" rx="8" fill="#10B981" stroke="#059669" stroke-width="2"/>
    
    <!-- Screen -->
    <rect x="35" y="28" width="50" height="64" rx="4" fill="#F0FDF4"/>
    
    <!-- Video call interface -->
    <rect x="38" y="32" width="44" height="28" rx="2" fill="#DCFCE7"/>
    
    <!-- Doctor avatar in video -->
    <circle cx="50" cy="42" r="6" fill="#F4C2A1"/>
    <rect x="45" y="48" width="10" height="8" rx="1" fill="white"/>
    
    <!-- Call buttons -->
    <circle cx="45" cy="75" r="4" fill="#EF4444"/>
    <circle cx="60" cy="75" r="4" fill="#10B981"/>
    <circle cx="75" cy="75" r="4" fill="#3B82F6"/>
    
    <!-- Floating elements around phone -->
    <circle cx="15" cy="35" r="8" fill="#A7F3D0" opacity="0.6"/>
    <circle cx="105" cy="45" r="6" fill="#A7F3D0" opacity="0.4"/>
    <circle cx="20" cy="80" r="5" fill="#A7F3D0" opacity="0.5"/>
    <circle cx="100" cy="85" r="7" fill="#A7F3D0" opacity="0.3"/>
    
    <!-- Medical cross icons -->
    <g transform="translate(10, 25)">
      <rect x="3" y="1" width="2" height="6" fill="#10B981" opacity="0.7"/>
      <rect x="1" y="3" width="6" height="2" fill="#10B981" opacity="0.7"/>
    </g>
    
    <g transform="translate(95, 75)">
      <rect x="3" y="1" width="2" height="6" fill="#10B981" opacity="0.5"/>
      <rect x="1" y="3" width="6" height="2" fill="#10B981" opacity="0.5"/>
    </g>
  </g>
</svg>