<svg width="120" height="120" viewBox="0 0 120 120" fill="none" xmlns="http://www.w3.org/2000/svg">
  <!-- Unicorn with medical theme -->
  <g id="unicorn-medicine">
    <!-- Unicorn body -->
    <ellipse cx="60" cy="70" rx="25" ry="15" fill="#F8BBD9" stroke="#EC4899" stroke-width="2"/>
    
    <!-- Unicorn head -->
    <circle cx="45" cy="50" r="18" fill="#F8BBD9" stroke="#EC4899" stroke-width="2"/>
    
    <!-- Horn -->
    <polygon points="45,32 48,45 42,45" fill="#FDE047" stroke="#EAB308" stroke-width="1"/>
    
    <!-- Horn spiral -->
    <path d="M43 35 Q45 38 47 41" stroke="#EC4899" stroke-width="1" fill="none"/>
    
    <!-- Eyes -->
    <circle cx="40" cy="47" r="2" fill="#1F2937"/>
    <circle cx="50" cy="47" r="2" fill="#1F2937"/>
    
    <!-- Nose -->
    <ellipse cx="45" cy="53" rx="1" ry="2" fill="#EC4899"/>
    
    <!-- Mane -->
    <path d="M30 40 Q25 35 30 30 Q35 35 40 32 Q45 35 50 30" fill="#F472B6" opacity="0.8"/>
    
    <!-- Legs -->
    <rect x="40" y="80" width="4" height="15" fill="#F8BBD9"/>
    <rect x="50" y="80" width="4" height="15" fill="#F8BBD9"/>
    <rect x="60" y="80" width="4" height="15" fill="#F8BBD9"/>
    <rect x="70" y="80" width="4" height="15" fill="#F8BBD9"/>
    
    <!-- Hooves -->
    <ellipse cx="42" cy="97" rx="3" ry="2" fill="#6B7280"/>
    <ellipse cx="52" cy="97" rx="3" ry="2" fill="#6B7280"/>
    <ellipse cx="62" cy="97" rx="3" ry="2" fill="#6B7280"/>
    <ellipse cx="72" cy="97" rx="3" ry="2" fill="#6B7280"/>
    
    <!-- Tail -->
    <path d="M85 65 Q95 70 90 80 Q85 75 80 78" fill="#F472B6" opacity="0.8"/>
    
    <!-- Medical cross on body -->
    <rect x="57" y="65" width="2" height="8" fill="white"/>
    <rect x="54" y="68" width="8" height="2" fill="white"/>
    
    <!-- Floating medical elements -->
    <circle cx="20" cy="30" r="6" fill="#FBCFE8" opacity="0.6"/>
    <rect x="17" y="27" width="1" height="6" fill="#EC4899" opacity="0.7"/>
    <rect x="15" y="29" width="6" height="1" fill="#EC4899" opacity="0.7"/>
    
    <circle cx="100" cy="40" r="8" fill="#FBCFE8" opacity="0.4"/>
    <circle cx="98" cy="38" r="2" fill="#EC4899" opacity="0.6"/>
    
    <circle cx="15" cy="80" r="5" fill="#FBCFE8" opacity="0.5"/>
    <circle cx="105" cy="85" r="7" fill="#FBCFE8" opacity="0.3"/>
    
    <!-- Pills/medicine -->
    <ellipse cx="25" cy="60" rx="3" ry="5" fill="#EC4899" opacity="0.7"/>
    <ellipse cx="95" cy="70" rx="4" ry="6" fill="#F472B6" opacity="0.6"/>
    
    <!-- Stars -->
    <polygon points="85,25 87,30 92,30 88,33 90,38 85,35 80,38 82,33 78,30 83,30" fill="#FDE047" opacity="0.8"/>
    <polygon points="25,90 26,92 28,92 27,93 27,95 25,94 23,95 23,93 22,92 24,92" fill="#FDE047" opacity="0.6"/>
  </g>
</svg>